<svg xmlns="http://www.w3.org/2000/svg" id="Layer_2" viewBox="0 0 149.61 89.7"><defs><style>.cls-1{fill:#c1e2e8;stroke-width:0px;}</style></defs><g id="Layer_1-2"><g id="A84SKn"><path class="cls-1" d="M76.73,11.01c-.44,1.81-.82,3.37-1.2,4.94-2.16,9.01-4.31,18.02-6.48,27.03-.53,2.2-1.05,2.6-3.29,2.61-1.21,0-2.42,0-3.63,0-2.05-.01-2.6-.41-3.22-2.39-.7-2.24-1.38-4.49-2.06-6.74-3.23-10.62-6.46-21.25-9.68-31.87-.17-.55-.33-1.1-.42-1.66-.18-1.05.27-1.56,1.34-1.57,1.65-.01,3.31-.02,4.96,0,1.42.02,1.99.35,2.41,1.71.58,1.88,1.05,3.79,1.53,5.69,2.28,8.95,4.54,17.9,6.81,26.85.07.27.16.52.42.79.52-2.19,1.05-4.38,1.57-6.57,2.05-8.71,4.09-17.42,6.15-26.13.45-1.88,1.04-2.33,3.01-2.34,1.27,0,2.55,0,3.82,0,1.96,0,2.55.45,3,2.34.8,3.33,1.57,6.67,2.35,10.01,1.79,7.6,3.58,15.2,5.37,22.79.02.09.07.17.22.49.16-.52.27-.84.35-1.17,2.74-10.6,5.47-21.2,8.21-31.8.59-2.29,1.09-2.66,3.45-2.66,1.37,0,2.74-.01,4.1,0,.99.01,1.32.36,1.25,1.35-.04.56-.16,1.13-.33,1.68-4.03,12.94-8.07,25.87-12.11,38.81-.63,2.01-1.2,2.44-3.29,2.44-1.27,0-2.55,0-3.82,0-1.93,0-2.57-.5-3.01-2.35-1.21-5.06-2.43-10.12-3.64-15.18-1.28-5.34-2.56-10.68-3.84-16.01-.07-.27-.16-.53-.33-1.07Z"></path><path class="cls-1" d="M74.92,89.7c-7.89-.16-15.22-.78-22.47-2.26-5.23-1.07-10.37-2.46-15.4-4.25-6.61-2.36-12.93-5.32-18.97-8.88-6.21-3.66-11.99-7.92-17.32-12.78-.42-.39-.82-1.13-.76-1.65.11-.82.98-1,1.95-.49,1.3.68,2.56,1.42,3.85,2.11,6.81,3.66,13.88,6.74,21.2,9.27,5.8,2.01,11.69,3.65,17.69,4.94,5.75,1.24,11.53,2.3,17.4,2.66,5.68.35,11.37.69,17.05.7,5.72,0,11.43-.44,17.07-1.44,4.94-.87,9.93-1.58,14.78-2.82,5.53-1.41,10.94-3.3,16.38-5.05,1.87-.6,3.67-1.42,5.51-2.13.35-.14.72-.28,1.09-.32.92-.1,1.74.15,2.18,1.03.49.97.28,1.84-.67,2.53-1.78,1.28-3.57,2.56-5.43,3.71-7.29,4.51-15.13,7.77-23.33,10.22-5.43,1.62-10.94,2.89-16.54,3.66-3.74.51-7.52.73-11.28,1.04-1.49.12-2.98.15-3.98.19Z"></path><path class="cls-1" d="M34.26,39.87c-1.88,2.12-3.89,3.85-6.34,5.01-4.15,1.97-8.5,2.41-12.92,1.26-5.95-1.55-9.36-6.83-9.05-13.34.35-7.38,5.69-11.69,11.69-12.91,4.57-.93,9.11-.41,13.62.48.77.15,1.55.33,2.45.52,0-3.42.36-6.8-1.14-9.97-1.09-2.3-3.14-3.22-5.48-3.66-4.89-.92-9.53.12-14.09,1.81-.86.32-1.72.66-2.6.91-.93.26-1.44-.09-1.48-1.02-.05-1.21-.03-2.42,0-3.63.03-.94.67-1.46,1.43-1.87,2.58-1.37,5.34-2.2,8.19-2.74,4.49-.85,8.98-.86,13.42.3,5.33,1.39,8.8,5.39,9.55,11.02.23,1.73.34,3.48.36,5.22.05,4.36.05,8.72,0,13.08-.04,3.68.35,7.22,2.3,10.46.57.94.32,1.77-.58,2.42-1.11.8-2.25,1.55-3.41,2.27-.95.59-1.82.51-2.56-.4-.94-1.15-1.73-2.42-2.55-3.66-.29-.44-.51-.94-.83-1.55ZM25.1,25.1c-.01.05-.02.11-.03.16-.92.05-1.84.08-2.76.15-5.05.38-7.83,3.36-7.67,8.23.12,3.57,2.22,6.08,5.53,6.47,2.95.35,5.79-.14,8.4-1.54,2.57-1.39,4.47-3.41,4.93-6.41.25-1.63.25-3.29.37-4.94.04-.58-.16-.85-.77-.94-2.67-.37-5.33-.78-8-1.17Z"></path><path class="cls-1" d="M124.96,46.98c-3.43-.17-6.76-.78-9.99-1.92-1.04-.37-2.08-.83-2.98-1.45-.54-.37-1.06-1.1-1.16-1.73-.19-1.21-.12-2.47-.07-3.7.03-.71.55-1.09,1.26-.97.59.1,1.18.27,1.72.51,4.2,1.86,8.61,2.63,13.19,2.39,1.88-.1,3.73-.44,5.4-1.38,1.96-1.11,3.02-2.78,2.99-5.06-.03-2.19-1.11-3.84-3.1-4.63-2.88-1.15-5.86-2.04-8.78-3.11-2.05-.75-4.18-1.4-6.07-2.46-7.7-4.32-8.91-15.78.36-21.09,3.79-2.17,7.93-2.7,12.17-2.26,2.38.25,4.72.91,7.08,1.42.55.12,1.08.37,1.6.61,1.68.76,2.76,1.9,2.48,3.93-.08.59,0,1.21-.02,1.81-.04,1.13-.6,1.58-1.69,1.25-.97-.29-1.88-.77-2.84-1.09-4.18-1.41-8.44-1.88-12.75-.75-3.37.88-4.96,3.55-4.13,6.61.35,1.3,1.1,2.38,2.28,2.92,2.33,1.05,4.73,1.97,7.13,2.86,2.35.87,4.78,1.53,7.1,2.46,9.53,3.82,9.3,15.52,2.71,20.75-3.02,2.4-6.54,3.45-10.29,3.86-1.2.13-2.41.14-3.61.2Z"></path><path class="cls-1" d="M134.91,61.48c-3.87.36-7.38.69-10.89,1.02-.28.03-.59.12-.85.06-.43-.1-.83-.3-1.24-.46.18-.41.24-.99.55-1.21,1.06-.75,2.17-1.45,3.33-2.02,3.51-1.72,7.26-2.44,11.14-2.67,3.31-.2,6.6-.11,9.82.79,2.47.69,2.88,1.24,2.84,3.77-.11,6.41-2.16,12.24-5.66,17.54-1.07,1.62-2.53,3-3.88,4.42-.44.46-1.02,1.18-1.79.65-.75-.52-.18-1.22.02-1.82,1.36-4.03,2.8-8.03,4.08-12.09.41-1.28.48-2.69.56-4.05.1-1.68-.5-2.64-2.15-3.03-2.02-.48-4.12-.65-5.87-.91Z"></path></g></g></svg>