<svg xmlns="http://www.w3.org/2000/svg" id="Layer_2" viewBox="0 0 240.24 133.72"><defs><style>.cls-1{fill:#c1e2e8;stroke-width:0px;}</style></defs><g id="Layer_1-2"><g id="keE9IR"><path class="cls-1" d="M88.33,20.67c1.9,1.08,3.73,2.11,5.55,3.14,7.7,4.33,15.41,8.64,23.09,13.01.75.42,1.25.38,1.97-.02,10.37-5.88,20.77-11.72,31.15-17.57,1.74-.98,2.93-.28,2.93,1.74,0,3.61-.03,7.22.02,10.82.01.91-.22,1.43-1.07,1.9-11.04,6.17-22.07,12.38-33.07,18.61-.75.42-1.26.38-1.98-.03-9.67-5.46-19.36-10.89-29.04-16.33-1.3-.73-1.31-.72-1.31.78,0,1.59.03,3.18-.01,4.77-.02.68.2,1.08.82,1.42,9.91,5.55,19.82,11.12,29.71,16.73.74.42,1.24.23,1.87-.12,10.42-5.88,20.85-11.74,31.28-17.61,1.81-1.02,2.79-.43,2.79,1.66,0,3.74-.02,7.47.02,11.21,0,.8-.26,1.21-.94,1.59-11.07,6.2-22.13,12.43-33.18,18.68-.73.41-1.26.4-1.98,0-11.05-6.25-22.11-12.47-33.17-18.7-.78-.44-1.26-1.97-.87-2.75.35-.69,1.67-.91,2.56-.4,10.31,5.8,20.64,11.59,30.92,17.44,1.15.65,1.97.64,3.11-.01,9.54-5.43,19.11-10.8,28.7-16.16.82-.46,1.15-.96,1.1-1.9-.08-1.58-.06-3.18,0-4.77.04-1.04-.2-1.17-1.11-.65-6.9,3.92-13.82,7.8-20.73,11.69-2.88,1.62-5.76,3.23-8.63,4.88-.63.36-1.12.37-1.77,0-11.12-6.29-22.26-12.56-33.41-18.81-.61-.34-.82-.71-.81-1.41.04-3.91.01-7.82.02-11.73,0-1.52,1.14-2.18,2.46-1.44,10.5,5.91,21.01,11.81,31.49,17.75.81.46,1.39.48,2.21.02,9.7-5.49,19.42-10.96,29.16-16.39.82-.46,1.17-.94,1.12-1.89-.08-1.54-.02-3.09-.02-4.64,0-1.38-.01-1.38-1.2-.72-6.61,3.72-13.23,7.45-19.84,11.17-3.14,1.77-6.29,3.52-9.41,5.31-.63.36-1.09.4-1.75.02-11.12-6.29-22.26-12.55-33.39-18.83-1.19-.67-1.22-2.35-.05-3.01C94.8,12.85,105.98,6.56,117.13.25c.61-.35,1.04-.32,1.63.02,8.25,4.67,16.49,9.34,24.78,13.94,1.03.57,1.19,1.29.91,2.19-.22.72-2.18,1.23-2.86.84-7.59-4.27-15.18-8.53-22.76-12.81-.61-.35-1.07-.44-1.74-.06-9.29,5.26-18.6,10.49-27.91,15.73-.26.15-.5.32-.86.56Z"></path><path class="cls-1" d="M111.61,114.3c0-5.79.02-11.59-.02-17.38,0-.96.16-1.4,1.24-1.3,1.19.11,2.41.07,3.6,0,.8-.04,1.01.21,1,1.01-.04,4.2-.03,8.41-.02,12.62,0,.31-.18.73.25.9.4.17.61-.16.85-.41,5.2-5.5,14.42-4.09,18.51,2.32,4.37,6.84,2.2,16.46-4.62,20.17-4.62,2.51-9.98,1.82-13.89-1.79-.25-.23-.46-.56-.86-.39-.43.18-.24.59-.25.91-.08,2.14-.07,2.14-2.16,2.14-.86,0-1.72-.06-2.58.02-.95.09-1.13-.3-1.13-1.17.03-5.88.02-11.76.02-17.64h.04ZM117.15,119.96c-.01,4.79,3.52,8.5,8.11,8.51,4.52.01,8.15-3.7,8.16-8.33.01-4.84-3.59-8.61-8.18-8.56-4.56.05-8.08,3.69-8.09,8.38Z"></path><path class="cls-1" d="M27.68,114.44c0,5.84-.02,11.68.02,17.52,0,.88-.18,1.21-1.12,1.15-1.24-.09-2.49-.07-3.74,0-.76.04-.92-.24-.93-.95-.01-.78.45-1.9-.33-2.26-.74-.33-1.15.82-1.72,1.29-4.34,3.55-10.97,3.3-15.35-.61-7.17-6.41-5.53-19.02,2.99-23.08,4.52-2.15,9.6-1.36,13.22,2.05.24.23.43.62.83.49.46-.15.39-.6.39-.99,0-4.08.04-8.16-.03-12.24-.01-.98.25-1.28,1.21-1.19,1.49.14,2.99-.14,4.48.14.02,1.46.07,2.91.07,4.37,0,4.77,0,9.53,0,14.3ZM5.89,120.2c.14,4.78,3.77,8.37,8.35,8.26,4.5-.1,8.12-4.05,7.97-8.69-.15-4.66-3.87-8.32-8.33-8.2-4.62.13-8.13,3.92-7.99,8.62Z"></path><path class="cls-1" d="M107.24,119.98c0,3.99-.03,7.98.02,11.98,0,.89-.22,1.21-1.14,1.15-1.15-.08-2.33-.09-3.48,0-1.03.09-1.3-.33-1.17-1.24.05-.34.03-.69,0-1.03-.03-.36.18-.83-.28-1.02-.46-.19-.67.26-.92.52-1.45,1.54-3.21,2.56-5.26,3.04-6.15,1.43-12.21-2.01-14.49-8.2-2.65-7.16.56-15.32,7.18-17.91,4.6-1.8,8.91-1.23,12.62,2.26.25.23.45.61.83.47.48-.17.31-.65.32-1.01.06-1.97.06-1.97,2.07-1.97.9,0,1.81.05,2.71-.02.81-.06,1.01.23,1,1.01-.04,3.99-.02,7.98-.02,11.98ZM101.74,120.06c.02-4.78-3.54-8.51-8.11-8.48-4.53.02-8.15,3.71-8.18,8.34-.04,4.72,3.56,8.52,8.1,8.55,4.58.03,8.18-3.66,8.2-8.41Z"></path><path class="cls-1" d="M58.43,119.97c0,3.95-.05,7.9.03,11.84.02,1.11-.31,1.39-1.36,1.3-1.15-.1-2.32-.06-3.48,0-.72.03-.95-.19-.96-.93,0-.78.45-1.93-.25-2.27-.8-.39-1.23.81-1.81,1.3-4.92,4.15-12.77,3.01-16.96-2.5-5.3-6.97-2.94-17.63,4.7-21.24,4.51-2.13,9.58-1.34,13.2,2.08.25.23.44.59.85.43.42-.16.27-.58.29-.9q.09-2.08,2.2-2.08c.86,0,1.72.06,2.58-.02.82-.07.99.23.99,1-.04,3.99-.02,7.98-.02,11.97ZM52.95,120.04c0-4.77-3.54-8.46-8.13-8.47-4.51-.01-8.12,3.7-8.14,8.35-.01,4.78,3.51,8.51,8.08,8.54,4.58.03,8.18-3.67,8.19-8.42Z"></path><path class="cls-1" d="M221.31,133.07c-2.33,0-4.38-.03-6.44.02-.63.01-.9-.36-1.22-.76-2.66-3.31-5.33-6.62-8.02-9.91-.32-.38-.54-1.22-1.23-.84-.67.37-1.36.83-1.34,1.85.05,2.79-.04,5.59.05,8.37.04,1.12-.32,1.39-1.36,1.3-1.11-.1-2.24-.07-3.35,0-.83.05-1.09-.19-1.08-1.06.05-4.21.02-8.42.02-12.63,0-7.52.02-15.03-.03-22.55,0-1.04.29-1.33,1.29-1.25,1.07.08,2.15.08,3.22,0,.97-.07,1.3.18,1.29,1.23-.06,6.06-.03,12.11-.03,18.17,0,.21,0,.43,0,.64-.01.35-.02.73.36.88.41.16.6-.24.84-.47,1.25-1.24,2.49-2.5,3.73-3.74,1.58-1.58,3.16-3.16,4.74-4.74.27-.27.49-.6.94-.59,2.12,0,4.25,0,6.37,0,.06.11.11.21.17.32-2.26,2.21-4.52,4.41-6.77,6.63-1.16,1.14-2.28,2.34-3.48,3.45-.66.62-.72,1.05-.1,1.79,3.64,4.34,7.23,8.72,10.84,13.09.16.19.3.39.6.8Z"></path><path class="cls-1" d="M183.91,133.62c-6.67.27-12.61-3.99-13.72-10.97-1.63-10.27,5.97-17.3,15.48-16.23,2.93.33,5.5,1.48,7.85,3.24.73.55,1.06.97.13,1.58-.04.02-.07.05-.09.09-1.51,1.93-2.87,2.6-5.52,1.2-4.75-2.5-10.4.07-11.77,4.87-.93,3.23-.4,6.25,2.09,8.64,2.59,2.49,5.72,2.9,9.07,1.8.89-.29,1.79-.66,2.54-1.2.8-.58,1.26-.4,1.77.3.22.31.52.57.79.85q1.75,1.86-.45,3.26c-2.53,1.61-5.2,2.82-8.15,2.57Z"></path><path class="cls-1" d="M231.7,133.68c-5.17-.07-8.43-1.7-10.55-5.42-.45-.79-.3-1.19.51-1.55.98-.43,1.93-.93,2.85-1.47.63-.37.91-.38,1.33.36,1.51,2.68,4.18,3.76,6.71,2.87,1.09-.38,1.84-1.06,1.99-2.27.17-1.33-.42-2.24-1.55-2.83-1.41-.74-2.98-1.04-4.46-1.59-.8-.3-1.62-.55-2.39-.91-3.03-1.44-4.78-3.75-4.49-7.22.27-3.32,2.13-5.51,5.2-6.68,4.58-1.74,9.85,0,12.47,4.01.52.79.57,1.28-.44,1.59-.32.1-.6.32-.91.48-.79.43-1.54,1.09-2.38,1.21-1.07.16-1.08-1.19-1.73-1.74-1.5-1.29-3.11-1.75-4.99-1.1-.98.34-1.6,1.04-1.72,2.05-.13,1.02.35,1.82,1.18,2.41,1.11.78,2.4,1.09,3.66,1.5,1.46.48,2.91.98,4.28,1.7,5.59,2.92,4.87,10.17.28,12.98-1.79,1.1-3.73,1.69-4.87,1.63Z"></path><path class="cls-1" d="M66.05,119.41c0-2.06-.06-4.12.02-6.18.04-1.13-.21-1.64-1.48-1.55-1,.07-2.62.49-2.9-.18-.49-1.17-.19-2.68-.21-4.04,0-.53.42-.44.75-.44.9-.01,1.8-.03,2.71,0,.83.03,1.15-.3,1.13-1.14-.04-2.02.01-4.03-.03-6.05-.02-.72.18-.99.93-.95,1.24.06,2.49.06,3.73,0,.82-.04,1.12.17,1.09,1.05-.07,1.97.02,3.95-.04,5.92-.03.93.33,1.21,1.2,1.18,1.33-.05,2.66,0,3.99-.05.68-.02,1.05.12.97.91-.12,1.23.5,2.8-.24,3.6-.69.75-2.27.21-3.46.22-2.45.04-2.45.01-2.45,2.44,0,2.96,0,5.92,0,8.88,0,.77.06,1.54.22,2.3.45,2.16,1.28,2.88,3.51,2.93.73.01,1.47.05,2.19-.06.96-.15,1.17.24,1.09,1.11-.07.72-.01,1.46-.01,2.19,0,1.72,0,1.78-1.7,1.84-1.63.06-3.29.18-4.89-.05-3.66-.52-5.9-3.28-6.07-7.31-.09-2.18-.02-4.38-.02-6.56-.01,0-.03,0-.04,0Z"></path><path class="cls-1" d="M142.44,119.97c0-3.99.02-7.99-.02-11.98,0-.78.17-1.04.99-1,1.29.07,2.58.05,3.87,0,.65-.02.95.13.88.84-.06.55-.02,1.12,0,1.67,0,.41-.14.94.39,1.1.48.15.62-.36.83-.65,1.62-2.23,3.82-3.34,6.56-3.51.96-.06,1.41.14,1.32,1.24-.11,1.32-.03,2.66-.02,3.99,0,.45.05.75-.67.71-4.56-.26-7.76,2.57-8.18,7.17-.37,4.07-.14,8.15-.15,12.23,0,1.08-.29,1.42-1.36,1.31-1.44-.15-3.37.6-4.19-.28-.72-.77-.22-2.68-.23-4.09-.01-2.92,0-5.84,0-8.76Z"></path><path class="cls-1" d="M160.8,120.1c0-3.99.03-7.99-.02-11.98-.01-.9.23-1.19,1.14-1.13,1.33.08,2.66.05,4,0,.62-.02.79.19.79.8-.02,8.16-.02,16.32,0,24.47,0,.74-.31.84-.92.83-1.33-.03-2.67-.06-4,0-.82.04-1.01-.25-1-1.02.04-3.99.02-7.99.02-11.98Z"></path><path class="cls-1" d="M160.17,99.17c0-2,1.5-3.49,3.5-3.5,2.03-.01,3.57,1.56,3.54,3.59-.03,1.94-1.61,3.46-3.57,3.44-1.98-.02-3.47-1.54-3.46-3.53Z"></path></g></g></svg>