<svg xmlns="http://www.w3.org/2000/svg" id="Layer_2" viewBox="0 0 540.46 300.98"><defs><style>.cls-1{fill:none;}.cls-1,.cls-2{stroke-width:0px;}.cls-2{fill:#c2e2e9;}</style></defs><g id="Layer_1-2"><path class="cls-1" d="M297.08,99.63c.11-14.66-11.01-26.19-25.85-26.82-.38-.02-.75-.02-1.13-.02-6.93,0-13.49,2.72-18.58,7.73-5.2,5.12-8.08,12-7.89,18.86v.11s0,.11,0,.11c-.15,6.93,2.62,13.79,7.61,18.82,5.1,5.15,11.9,7.95,19.14,7.86,7.34-.09,14.08-2.82,18.98-7.7,4.92-4.89,7.66-11.62,7.71-18.95Z"></path><path class="cls-1" d="M257.66,263.58c-5.49-.78-9.82,2.81-10.38,8.59-.55,5.62,3.23,10.51,8.34,10.8,5.3.3,9.31-3.91,9.31-9.76,0-5.11-2.95-9.01-7.26-9.62Z"></path><path class="cls-1" d="M361.21,253.15c-1.7-1.17-3.62-1.31-5.6-1.22-2.23.11-5.12-.92-6.53.38-1.45,1.33-.22,4.26-.45,6.09,0,2.26.04,4.14-.02,6.01-.03,1.05.3,1.48,1.4,1.45,2.47-.06,4.96.07,7.43-.06,3.37-.18,5.8-2.23,6.68-5.4.71-2.56-.51-5.6-2.91-7.25Z"></path><path class="cls-1" d="M170.53,264.98c-2.35-1.32-4.71-1.23-7.01.11-2.64,1.55-3.96,3.9-4.08,7.41,3.89-1.6,7.46-3.05,11.01-4.56.64-.27,1.76-.31,1.77-1.04.02-.89-.9-1.47-1.7-1.92Z"></path><path class="cls-1" d="M130.03,265.76c-2.43-1.83-5.06-2.18-7.81-.82-3.29,1.64-4.71,4.44-4.76,6.67-.04,5.58,2.46,9.12,6.11,9.99,3.64.88,7.13-.79,8.77-4.19,1.93-3.98.9-9.23-2.32-11.66Z"></path><path class="cls-1" d="M93.55,264.11c-4.52-.07-8.33,3.94-8.38,8.81-.04,4.87,3.65,8.9,8.21,8.97,4.53.07,8.33-3.92,8.38-8.8.05-4.85-3.66-8.91-8.2-8.99Z"></path><path class="cls-1" d="M317.65,263.59c-4.8-.72-8.71,1.91-9.91,6.68-1.35,5.33,1.14,10.71,5.67,12.26,5.81,1.98,11.27-2.52,11.28-9.31.01-4.94-2.96-9.01-7.04-9.62Z"></path><path class="cls-1" d="M61.35,264.11c-4.53-.03-8.22,3.96-8.23,8.88,0,5.05,3.48,8.8,8.19,8.82,4.71.02,8.18-3.71,8.19-8.79,0-5.05-3.5-8.87-8.15-8.9Z"></path><path class="cls-1" d="M399.99,274.04c-1.38-.41-2.77-.63-4.2-.63-1.81-.03-3.61.08-5.19,1.1-1.69,1.1-2.7,2.59-2.44,4.7.25,2.01,1.68,2.87,3.41,3.43,3.89,1.24,8.85-1.43,10.08-5.38.52-1.69.06-2.7-1.66-3.21Z"></path><path class="cls-1" d="M462.95,263.59c-5.18-.79-9.72,2.66-10.33,7.85-.73,6.2,2.83,11.22,8.18,11.53,5.34.31,9.36-3.85,9.39-9.7.03-5.04-2.95-9.02-7.23-9.67Z"></path><path class="cls-2" d="M42.41,262.72c-4.95.09-9.9.04-14.85.04-4.8,0-4.75,0-4.55,4.83.05,1.23.5,1.5,1.6,1.48,3.08-.05,6.15-.02,9.23-.02,4.64,0,4.86.34,2.92,4.61-2.36,5.2-8.18,8.16-15.02,7.64-6.74-.51-12.19-4.95-14.19-11.59-1.96-6.49.26-13.75,5.45-17.78,5.42-4.22,12.55-4.7,18.35-1.36,1.12.64,1.97,2.34,3.27,1.89,1.15-.4,1.88-1.88,2.94-2.71,1.4-1.09.89-1.73-.21-2.65-8.23-6.9-21.12-6.58-29.37.62-4.23,3.69-6.54,8.39-7.97,13.66v7.2c.11.09.3.17.32.28,1.51,10.31,12.17,20.29,25.95,18.68,11.14-1.3,19.33-10.43,18.09-23.09-.13-1.28-.57-1.75-1.95-1.73Z"></path><path class="cls-2" d="M139.13,262.78q0-3.62-3.69-3.62c-.74,0-1.55-.1-2.22.15-.77.28-.06,1.36-.6,1.91-6.21-4.42-12.79-3.71-17.95,1.87-4.95,5.36-5.1,13.93-.33,19.54,4.88,5.74,11.62,6.53,18.36,2.14.05.13.13.26.14.39.2,5.01-1.34,8.15-4.61,9.35-3.89,1.43-6.9.3-10.11-3.94-.5-.67-.86-.68-1.45-.36-1.46.81-3.29.9-4.45,2.27-.08.1.18.54.33.79.38.64.77,1.28,1.19,1.9,2.12,3.14,5.39,4.55,8.76,5.8h4.5c.22-.39.62-.35.98-.41,5.29-.79,8.64-3.86,10.24-8.87.76-2.37.92-4.84.92-7.33-.02-7.2,0-14.4,0-21.6ZM132.35,277.42c-1.65,3.4-5.13,5.06-8.77,4.19-3.65-.88-6.16-4.42-6.11-9.99.05-2.23,1.47-5.04,4.76-6.67,2.75-1.36,5.38-1.01,7.81.82,3.22,2.43,4.25,7.67,2.32,11.66Z"></path><path class="cls-2" d="M181.9,54.65c-.68,1.22-1.37,2.43-2.05,3.65l18.55,32.11c.64-1.11,1.28-2.22,1.91-3.33.14-.25.29-.5.43-.75,1.72-2.99,3.46-6.02,5.22-9.06.07-.12.14-.24.21-.36.31-.54.63-1.09.94-1.64.31-.54.62-1.08.93-1.62.13-.22.25-.44.38-.66.49-.85.98-1.7,1.47-2.55.05-.08.1-.17.14-.25,1.8-3.12,3.61-6.25,5.4-9.35,3.4-5.88,6.89-11.84,10.26-17.6,1.49-2.54,2.97-5.08,4.46-7.62.09-.17.19-.35.32-.55l1.08-1.84h1c.8-.39,1.82-.63,3.1-.56h.07c23.27,0,46.54,0,69.8.01.37,0,.69.04.95.08.16,0,.32.02.48.04h9.02c10.1-.03,20.2-.04,30.3-.06-.5-.88-1.01-1.76-1.51-2.64-4.61-8.05-9.39-16.38-14.13-24.53-2.17-3.73-5.41-5.55-9.88-5.56C288.12-.01,255.8,0,219.97.01c-4.63,0-7.86,1.86-10.17,5.84-7.22,12.48-14.44,25.09-20.55,35.77-2.47,4.32-4.96,8.75-7.36,13.02Z"></path><path class="cls-2" d="M236.46,166.51c-.65,0-1.86,0-3.17-.47-1.31-.48-2.74-1.43-3.83-3.34-8.84-15.46-17.88-31.15-26.62-46.33l-7.87-13.67c-.25-.44-.43-.85-.56-1.14-.01-.02-.02-.05-.03-.07l-19.8-34.28c-.58,1.01-1.17,2.02-1.75,3.03-4.58,7.93-9.32,16.14-13.86,24.26-1.97,3.52-1.85,7.11.37,10.97,4.54,7.89,9.08,15.79,13.62,23.68,11.88,20.66,24.17,42.02,36.18,63.08,2.75,4.82,6.27,6.89,11.76,6.89.02,0,.04,0,.06,0,12.87-.04,25.95-.03,38.6-.03,6.68,0,13.36,0,20.05,0l3.21-5.57c5.19-9,10.38-18.01,15.57-27.02-19.37,0-40.86-.01-61.93.01Z"></path><path class="cls-2" d="M375.95,84.54c-1.68-2.92-3.36-5.85-5.04-8.77-4.82-8.36-9.64-16.73-14.46-25.09l-5.15-8.93c-.19,0-.37,0-.56,0-11.58.02-23.17.04-34.75.05h-1.72c.95,1.65,1.89,3.31,2.84,4.96,5.3,9.25,10.78,18.82,16.19,28.22,4.06,7.05,8.28,14.17,11.86,20.21.62,1.04,2.49,4.2.16,8.22-8.34,14.38-16.77,29.03-24.93,43.19-3.18,5.52-6.36,11.03-9.53,16.55-.1.17-.19.32-.29.47-.03.05-.06.08-.09.13-.07.1-.13.19-.2.28-.04.05-.08.1-.12.15-.06.07-.11.14-.16.2-.05.06-.09.11-.14.16-.03.03-.06.07-.08.09-.03.06-.06.13-.09.19-.28.55-.57,1.13-.91,1.73-6.04,10.49-12.09,20.98-18.14,31.47l-.62,1.07c1.02,0,2.04,0,3.06,0,9.16.02,18.63.04,27.94-.05,4.48-.04,7.71-2.05,10.16-6.32,16.26-28.37,33.07-57.71,49.79-86.74,2.54-4.4,2.54-8.32.01-12.71-1.68-2.91-3.35-5.82-5.02-8.73Z"></path><path class="cls-2" d="M540.35,268.13c-.23-6.16-4.14-9.63-10.22-9.45-3.77.11-6.58,2.03-8.87,4.89-4.4-6.42-10.05-6.6-17.31-.52,0-.56-.07-.99.01-1.39.42-2.21-.96-2.1-2.5-2.12-1.61-.03-2.56.02-2.52,2.17.15,7.64.17,15.29,0,22.93-.05,2.34,1.06,2.28,2.69,2.25,1.56-.02,2.84.19,2.73-2.21-.2-4.64-.14-9.3.03-13.94.15-4.2,3.32-7.33,7.03-7.29,3.96.05,5.61,2.06,5.69,7.19.07,4.35,0,8.7.02,13.04.03,3.5-.57,3.06,3.29,3.21,1.6.06,2.04-.46,2-2.02-.1-4.42-.05-8.84-.03-13.27.01-2.5.88-4.68,2.68-6.45,1.93-1.91,4.31-2.1,6.7-1.37,2.27.69,3.14,2.62,3.32,4.88.08.97.16,1.94.17,2.91.02,4.5.05,9-.02,13.49-.02,1.33.3,1.99,1.74,1.81.66-.08,1.35-.06,2.02,0,1.07.09,1.43-.36,1.42-1.43-.05-5.77.13-11.55-.08-17.31Z"></path><path class="cls-2" d="M327.27,246.97c-1.37.09-3.02-.62-2.89,2.01.24,4.62-.12,9.26.37,14.41-3.58-4.13-7.57-5.52-12.28-4.36-7.81,1.93-12.12,10.64-9.5,18.97,2.15,6.83,8.11,10.66,14.78,9.47,2.71-.48,4.83-2.04,6.87-4.18.04.69.12,1,.06,1.28-.51,2.5,1.1,2.24,2.76,2.36,2.05.15,2.25-.75,2.24-2.47-.07-11.83-.1-23.67.02-35.5.02-2.14-1.01-2.07-2.45-1.98ZM313.41,282.53c-4.54-1.55-7.02-6.92-5.67-12.26,1.21-4.77,5.12-7.4,9.91-6.68,4.08.61,7.05,4.68,7.04,9.62-.01,6.8-5.47,11.3-11.28,9.31Z"></path><path class="cls-2" d="M61.53,258.27c-8.32-.09-14.91,6.34-15.01,14.66-.1,8.18,6.61,14.87,14.85,14.81,8.29-.06,14.72-6.44,14.74-14.65.03-8.24-6.36-14.74-14.58-14.82ZM61.32,281.81c-4.71-.02-8.19-3.77-8.19-8.82,0-4.92,3.7-8.91,8.23-8.88,4.65.03,8.15,3.85,8.15,8.9,0,5.08-3.48,8.81-8.19,8.79Z"></path><path class="cls-2" d="M166.88,258.26c-1.44,0-2.84.25-4.19.71-5.61,1.9-8.75,5.94-9.52,11.67-.9,6.72,1.92,12.39,7.19,15.26,5.3,2.89,11.74,2.34,16.46-1.4,3.42-2.71,3.37-3.06-.13-5.5-1.31-.91-2.02-.99-3.24.35-3.1,3.42-8.66,3.28-11.63.04-1.19-1.3-1.39-2,.6-2.77,5.44-2.09,10.8-4.41,16.18-6.65.59-.25,1.51-.11,1.25-1.36-1.15-5.5-7.15-10.34-12.97-10.36ZM170.45,267.94c-3.55,1.5-7.12,2.96-11.01,4.56.12-3.51,1.44-5.86,4.08-7.41,2.29-1.34,4.65-1.43,7.01-.11.8.45,1.72,1.03,1.7,1.92-.02.73-1.13.77-1.77,1.04Z"></path><path class="cls-2" d="M93.6,258.27c-8.39-.08-14.83,6.32-14.83,14.71,0,8.39,6.48,14.86,14.78,14.76,8.34-.1,14.6-6.4,14.6-14.71,0-8.35-6.24-14.69-14.55-14.77ZM93.38,281.89c-4.56-.07-8.25-4.11-8.21-8.97.04-4.87,3.86-8.88,8.38-8.81,4.54.07,8.25,4.14,8.2,8.99-.05,4.88-3.85,8.87-8.38,8.8Z"></path><path class="cls-2" d="M224.35,278.19c-5,4.79-10.94,5.83-17.23,3.24-6.3-2.59-8.96-7.82-9.07-14.46-.1-3,.57-5.81,2.04-8.41,4.72-8.33,16.36-10.1,23.38-3.51.86.81,1.27.83,2.11.06,2.85-2.62,2.89-2.61-.2-5-.88-.68-1.82-1.33-2.82-1.83-13.01-6.61-30.23,2.16-29.81,19,.21,8.45,3.92,14.91,11.7,18.44,7.79,3.54,15.34,2.64,22.18-2.63,2.92-2.25,2.79-2.29.33-4.86-1-1.05-1.52-1.07-2.61-.03Z"></path><path class="cls-2" d="M356.92,246.98c-3.75-.02-7.5.11-11.24-.05-1.89-.08-2.18.63-2.15,2.29.09,5.91.04,11.83.04,17.74s.08,11.83-.05,17.74c-.04,1.84.56,2.43,2.27,2.18.44-.06.9-.05,1.35,0,1.21.14,1.54-.43,1.51-1.57-.07-2.17-.02-4.34-.02-6.51,0-2.17.06-4.34-.02-6.51-.05-1.2.39-1.55,1.54-1.51,2.32.07,4.65.07,6.97.01,7.11-.17,12.61-5.45,12.55-12.02-.05-6.6-5.59-11.74-12.74-11.78ZM364.12,260.4c-.88,3.17-3.31,5.22-6.68,5.4-2.47.13-4.95,0-7.43.06-1.1.03-1.43-.4-1.4-1.45.06-1.87.02-3.75.02-6.01.23-1.83-1-4.75.45-6.09,1.41-1.3,4.3-.27,6.53-.38,1.98-.1,3.9.05,5.6,1.22,2.39,1.65,3.62,4.69,2.91,7.25Z"></path><path class="cls-2" d="M406.91,269.41c-.27-5.28-3.17-8.75-7.79-10.16-5.36-1.63-11-.13-14.13,3.77-1.61,2.01-1.6,2.3.77,3.16,1.01.36,2.04,1.94,3.36.01,1.76-2.58,5.13-3.4,8.28-2.43,2.8.86,4.25,2.93,4.53,6.75-4.71-1.8-9.25-2.17-13.74-.14-3.32,1.5-5.33,3.96-5.48,7.79-.14,3.87,1.49,6.66,4.89,8.39,4.58,2.33,10.07,1.26,13.52-2.56.26-.28.43-.63.88-.34.16,3.54.16,3.5,3.69,3.25.91-.06,1.36-.27,1.35-1.29-.05-5.4.15-10.81-.13-16.19ZM401.65,277.25c-1.23,3.95-6.19,6.63-10.08,5.38-1.73-.55-3.16-1.42-3.41-3.43-.26-2.11.74-3.6,2.44-4.7,1.58-1.02,3.38-1.13,5.19-1.1,1.43,0,2.82.21,4.2.63,1.72.52,2.18,1.53,1.66,3.21Z"></path><path class="cls-2" d="M461.39,258.67c-8.11,0-14.14,6.22-14.11,14.55.03,8.35,6.14,14.6,14.18,14.52,7.99-.08,13.97-6.26,14.02-14.48.05-8.31-6.01-14.58-14.09-14.59ZM460.8,282.97c-5.35-.31-8.91-5.33-8.18-11.53.61-5.19,5.16-8.64,10.33-7.85,4.29.66,7.26,4.64,7.23,9.67-.03,5.86-4.05,10.01-9.39,9.7Z"></path><path class="cls-2" d="M257.03,258.68c-8.7-.27-14.71,5.51-14.93,14.35-.21,8.25,5.8,14.59,13.94,14.71,7.76.12,13.94-5.93,14.15-13.84.22-8.45-5.43-14.99-13.16-15.22ZM255.62,282.97c-5.11-.29-8.89-5.17-8.34-10.8.56-5.78,4.89-9.37,10.38-8.59,4.32.61,7.27,4.51,7.26,9.62,0,5.85-4.01,10.06-9.31,9.76Z"></path><path class="cls-2" d="M297.83,259.77c-1.38-.24-2.86-.36-4.22-.1-1.16.23-.57,1.52-.6,2.32-.18,4.86.37,9.75-.3,14.59-.56,4.06-3.87,6.67-7.65,6.39-3.76-.28-5.83-2.88-5.85-7.37-.01-4.12,0-8.24,0-12.36,0-3.91,0-3.87-3.84-3.69-1.06.05-1.44.36-1.43,1.43.04,5.32-.14,10.65.07,15.96.26,6.73,3.62,10.37,9.66,10.77,3.74.24,6.77-1.36,9.52-4.53,0,.99.04,1.48,0,1.96-.28,2.64,1.72,1.53,2.88,1.72,1.4.24,2.15-.09,2.13-1.85-.1-7.87-.04-15.74-.05-23.6,0-.57.27-1.53-.31-1.63Z"></path><path class="cls-2" d="M443.5,251.6c2.35.28,2.74-.83,3.47-2.44.75-1.68.17-1.99-1.35-2.21-7.31-1.07-12.01,2.81-11.88,10.16.04,2.14-.65,2.79-2.61,2.47-1.84-.3-2.61.21-2.56,2.34.05,1.98.53,2.79,2.51,2.42,2.24-.42,2.79.57,2.65,2.69-.19,2.83-.05,5.69-.05,8.54,0,2.7,0,5.39,0,8.09,0,3.25,0,3.15,3.19,3.26,1.71.06,2.15-.47,2.11-2.14-.11-5.17-.04-10.34-.04-15.5,0-4.9,0-4.95,4.88-4.9,1.55.02,2.2-.2,2.25-2.02.06-2.21-.44-3.19-2.79-2.8-1.02.17-2.09.04-3.14.02-.43,0-.86.04-1.12-.49-1.65-3.25.95-7.9,4.49-7.48Z"></path><path class="cls-2" d="M149.97,248.25c0-4.59,0-4.52-4.57-4.57-1.57-.02-2.04.43-2.02,2,.08,6.52.03,13.03.03,19.55,0,5.77,0,11.54,0,17.3,0,4.36,0,4.27,4.37,4.37,1.8.04,2.23-.51,2.22-2.26-.08-12.13-.04-24.27-.04-36.4Z"></path><path class="cls-2" d="M424.52,282.46c-3.73.2-4.95-.75-5.02-4.46-.06-3.22-.01-6.44-.01-9.67,0-3.98,0-4.05,4.04-3.96,1.74.04,2.68-.08,2.64-2.33-.04-2.15-.72-2.74-2.67-2.48-.81.11-1.65-.04-2.47.03-1.16.1-1.6-.35-1.56-1.53.07-1.8.03-3.6,0-5.39,0-.56.18-1.39-.64-1.45-1.34-.11-2.81-.34-4.01.1-1.12.41-.37,1.87-.49,2.85-.11.89-.15,1.82,0,2.69.4,2.34-.58,3.05-2.8,2.76-.68-.09-1.69-.51-2.09.64-.88,2.55.15,4.16,2.78,4.04,1.71-.08,2.24.45,2.12,2.14-.14,2.09-.03,4.19-.03,6.29,0,1.72,0,3.45,0,5.17,0,7.05,4.07,10.44,11.03,9.16.74-.14,2.04-.08,1.5-1.28-.55-1.21-.1-3.44-2.32-3.32Z"></path><path class="cls-2" d="M494.73,259.05c-4.31-.7-7.54.89-10.25,4.6,0-.95-.08-1.54.01-2.11.41-2.44-1.31-1.92-2.65-1.98-1.43-.07-2.5-.19-2.46,1.98.15,7.79.15,15.59,0,23.39-.05,2.46,1.41,1.89,2.75,1.94,1.38.05,2.61.27,2.51-1.95-.19-4.34-.12-8.69-.04-13.04.08-4.54,3.03-8.03,6.99-7.73,2.64.2,3.54-.91,4.22-3.03.39-1.21.52-1.8-1.08-2.07Z"></path><path class="cls-2" d="M378.3,266.89c0-5.55,0-11.09,0-16.64,0-3.36,0-3.28-3.33-3.3-1.37,0-1.79.36-1.78,1.76.05,12.14.08,24.29,0,36.43-.02,2.41,1.54,1.65,2.72,1.72,1.22.07,2.5.41,2.45-1.75-.13-6.07-.05-12.14-.05-18.21Z"></path><path class="cls-2" d="M238.29,267.06c0-6.07-.09-12.14.05-18.21.05-2.01-.96-2.02-2.32-1.86-1.2.13-2.87-.81-2.85,1.78.11,12.06.11,24.13,0,36.19-.02,2.47,1.46,1.82,2.77,1.92,1.52.12,2.47,0,2.41-2.06-.16-5.91-.06-11.84-.06-17.76Z"></path><path class="cls-2" d="M337.2,99.45c-3.56-5.99-7.71-13-11.72-19.96-5.42-9.4-10.9-18.98-16.2-28.24-1.71-2.99-3.42-5.98-5.14-8.97-.13-.01-.25-.02-.35-.03-.07,0-.14-.02-.21-.02-20.01.02-40.02.02-60.03.03h-6.84c-1.08,1.85-2.16,3.7-3.25,5.55-3.36,5.75-6.84,11.7-10.24,17.56-4.93,8.53-9.93,17.21-14.76,25.61-1.64,2.85-3.28,5.71-4.93,8.56l7.1,12.34c8.6,14.94,17.5,30.39,26.21,45.62,22.66-.03,45.79-.02,66.22-.01.21,0,.43,0,.63,0,2.96-5.13,5.91-10.26,8.87-15.39,8.06-13.99,16.38-28.44,24.62-42.65ZM270.49,135.3c-.14,0-.29,0-.43,0-9.55,0-18.49-3.73-25.23-10.53-6.67-6.74-10.39-15.94-10.22-25.25-.22-9.31,3.63-18.57,10.57-25.42,7.06-6.96,16.68-10.71,26.42-10.3,9.46.4,18.2,4.28,24.6,10.91,6.44,6.67,9.95,15.54,9.88,24.98-.15,20.06-15.45,35.36-35.6,35.6Z"></path><path class="cls-2" d="M251.25,118.42c-4.99-5.04-7.76-11.9-7.61-18.82v-.11s0-.11,0-.11c-.19-6.86,2.69-13.73,7.89-18.86,5.09-5.01,11.65-7.73,18.58-7.73.37,0,.75,0,1.13.02,14.84.63,25.96,12.16,25.85,26.82-.05,7.33-2.79,14.06-7.71,18.95-4.91,4.88-11.65,7.61-18.98,7.7-7.25.09-14.04-2.7-19.14-7.86Z"></path></g></svg>